:SAMPLES-PER-SECOND 30
:FULLY-SPECIFIED
:DEGREES
110
root  37.2467 19.0616 2.53016 -130.192 73.2362 179.5
RightUpLeg  -57.6331 4.812 11.7398
RightLeg  115.678 3.53008 15.9266
RightFoot  -18.4547 -0.116741 -2.63673
RightToes  1.74622e-010 -3.18055e-015 8.94531e-016
Spine  46.839 -2.55361 10.6715
Spine1  -17.0632 1.87997 5.20533
HEad  -60.1773 -5.37269 7.0568
LeftShoulder1  0 -2.69403e-036 -1.28585e-037
LeftArm  0.342951 -36.959 -98.2512
LeftForeArm  25.5475 -4.7206 -1.85885
LeftHand  -3.66944 -0.588279 44.9885
RightShoulder  -2.48481e-017 0 -8.08114e-019
RightArm  5.26992 5.39056 74.2604
RightForeArm  2.60847 37.1727 -35.8001
RightHand  6.42397 -18.7513 -38.41
LeftUpLeg  -18.8297 -9.0022 15.2249
LeftLeg  66.6566 -14.2864 -5.76553
LeftFoot  22.3568 1.1748 -3.42691
LeftToes  4.94765e-010 2.02697e-011 4.00889e-011
111
root  37.8103 19.197 2.73215 -133.315 73.3388 176.86
RightUpLeg  -55.3933 5.01112 11.4125
RightLeg  113.949 3.58256 17.0288
RightFoot  -18.7082 -0.148821 -3.17635
RightToes  1.74622e-010 -3.18055e-015 8.94531e-016
Spine  47.7732 -2.55919 10.2235
Spine1  -17.3952 1.84313 3.51476
HEad  -60.9642 -6.21982 8.6587
LeftShoulder1  0 -2.69403e-036 -1.28585e-037
LeftArm  1.46026 -36.2223 -99.3283
LeftForeArm  26.5722 -4.19864 -2.30304
LeftHand  -3.78923 -0.664688 45.7821
RightShoulder  -2.48481e-017 0 -8.08114e-019
RightArm  3.59519 14.5058 69.3541
RightForeArm  2.6963 34.3779 -33.2457
RightHand  6.09204 -18.3901 -37.172
LeftUpLeg  -23.9328 -8.50912 15.0498
LeftLeg  76.1262 -13.6375 -5.85485
LeftFoot  18.2966 0.732723 -2.38354
LeftToes  4.94765e-010 2.02697e-011 4.00889e-011
112
root  38.3847 19.3198 2.91928 -135.554 74.254 174.971
RightUpLeg  -53.413 5.76603 10.8582
RightLeg  112.542 3.90384 17.3999
RightFoot  -19.2583 -0.153595 -2.98333
RightToes  1.74622e-010 -3.18055e-015 8.94531e-016
Spine  48.8174 -2.25801 9.64059
Spine1  -17.9542 2.05714 0.957721
HEad  -61.489 -7.33954 10.1349
LeftShoulder1  0 -2.69403e-036 -1.28585e-037
LeftArm  2.7737 -35.5813 -100.501
LeftForeArm  27.6703 -3.30558 -2.82484
LeftHand  -3.91647 -0.734726 46.6709
RightShoulder  -2.48481e-017 0 -8.08114e-019
RightArm  2.46458 23.1876 64.6374
RightForeArm  2.37358 29.1654 -29.0195
RightHand  5.74541 -17.9882 -35.8701
LeftUpLeg  -29.7454 -7.71587 14.2752
LeftLeg  85.7117 -13.0119 -6.04575
LeftFoot  11.4097 0.306609 -1.23744
LeftToes  4.94765e-010 2.02697e-011 4.00889e-011
113
root  38.9788 19.4474 3.09136 -138.305 75.7019 172.708
RightUpLeg  -51.3228 6.66564 10.1597
RightLeg  110.906 4.66616 16.8932
RightFoot  -19.3292 -0.105131 -2.05529
RightToes  1.74622e-010 -3.18055e-015 8.94531e-016
Spine  50.1135 -2.08278 9.26849
Spine1  -18.5694 2.2517 -2.69864
HEad  -61.735 -8.84788 11.4323
LeftShoulder1  0 -2.69403e-036 -1.28585e-037
LeftArm  4.22742 -35.0678 -101.795
LeftForeArm  28.7615 -2.08214 -3.36109
LeftHand  -4.04007 -0.784552 47.6245
RightShoulder  -2.48481e-017 0 -8.08114e-019
RightArm  2.30772 30.798 60.3783
RightForeArm  0.703942 21.9754 -23.9741
RightHand  5.40031 -17.5726 -34.5213
LeftUpLeg  -35.707 -6.99303 12.9135
LeftLeg  94.6247 -12.3045 -7.11454
LeftFoot  4.34525 0.00882283 0.0261513
LeftToes  4.94765e-010 2.02697e-011 4.00889e-011
114
root  39.5836 19.5546 3.28444 -141.707 77.5406 169.866
RightUpLeg  -48.9461 7.98044 9.50582
RightLeg  108.898 5.67733 15.8631
RightFoot  -18.6521 -0.0844752 -1.8751
RightToes  1.74622e-010 -3.18055e-015 8.94531e-016
Spine  51.2583 -1.7659 8.69127
Spine1  -18.7386 2.49022 -6.56075
HEad  -61.9173 -10.2304 12.9148
LeftShoulder1  0 -2.69403e-036 -1.28585e-037
LeftArm  5.61241 -34.5934 -102.957
LeftForeArm  29.9073 -1.75673 -3.52601
LeftHand  -4.13221 -0.815747 48.3587
RightShoulder  -2.48481e-017 0 -8.08114e-019
RightArm  -7.0426 37.2606 55.6577
RightForeArm  5.87236 16.0797 -15.708
RightHand  4.74657 -16.7794 -31.6354
LeftUpLeg  -41.4544 -6.24132 11.453
LeftLeg  102.616 -11.173 -8.93387
LeftFoot  -1.75926 -0.131726 1.23986
LeftToes  4.94765e-010 2.02697e-011 4.00889e-011
115
root  40.224 19.6411 3.52231 -146.218 79.5593 165.656
RightUpLeg  -46.5328 9.6457 8.98112
RightLeg  106.69 6.87679 14.0542
RightFoot  -18.1514 -0.109554 -2.63011
RightToes  1.74622e-010 -3.18055e-015 8.94531e-016
Spine  51.7825 -1.13474 7.50618
Spine1  -18.3017 2.73632 -9.73541
HEad  -62.1961 -10.8152 14.5486
LeftShoulder1  0 -2.69403e-036 -1.28585e-037
LeftArm  6.55137 -34.1235 -103.434
LeftForeArm  31.1188 -1.81036 -3.52338
LeftHand  -4.19494 -0.843916 48.8092
RightShoulder  -2.48481e-017 0 -8.08114e-019
RightArm  -14.4571 42.8558 51.8717
RightForeArm  6.25094 9.60939 -10.0382
RightHand  3.756 -15.4617 -26.5752
LeftUpLeg  -47.3997 -5.5304 10.3724
LeftLeg  110.047 -9.50271 -10.8498
LeftFoot  -7.82234 -0.0546633 0.644076
LeftToes  4.94765e-010 2.02697e-011 4.00889e-011
116
root  40.9329 19.7007 3.78717 -153.089 81.4769 158.905
RightUpLeg  -44.0958 11.0343 8.65916
RightLeg  104.245 8.25201 11.0998
RightFoot  -18.2225 -0.132981 -3.12022
RightToes  1.74622e-010 -3.18055e-015 8.94531e-016
Spine  51.9649 -0.578809 6.07711
Spine1  -17.6621 2.7579 -12.2094
HEad  -62.6215 -10.7923 15.8761
LeftShoulder1  0 -2.69403e-036 -1.28585e-037
LeftArm  7.11101 -33.5443 -102.873
LeftForeArm  32.1744 -1.89765 -3.57907
LeftHand  -4.26053 -0.879006 49.2397
RightShoulder  -2.48481e-017 0 -8.08114e-019
RightArm  -13.1293 47.6965 51.2506
RightForeArm  -1.67473 3.43391 -6.96465
RightHand  3.09946 -14.6112 -22.0787
LeftUpLeg  -53.6437 -5.21908 9.83325
LeftLeg  116.56 -7.6064 -12.24
LeftFoot  -13.089 -0.0389518 0.0549278
LeftToes  4.94765e-010 2.02697e-011 4.00889e-011
117
root  41.7386 19.7299 4.0786 -166.125 83.0442 145.983
RightUpLeg  -41.3568 11.7267 8.34862
RightLeg  101.271 9.63113 7.15407
RightFoot  -17.8171 -0.179958 -4.53311
RightToes  1.74622e-010 -3.18055e-015 8.94531e-016
Spine  52.271 -0.282613 4.39225
Spine1  -17.152 2.39742 -14.4703
HEad  -63.1376 -10.784 16.8331
LeftShoulder1  0 -2.69403e-036 -1.28585e-037
LeftArm  7.54783 -32.6461 -101.306
LeftForeArm  32.4947 -2.03672 -3.74151
LeftHand  -4.33673 -0.909937 49.7939
RightShoulder  -2.48481e-017 0 -8.08114e-019
RightArm  -11.1372 50.784 53.9615
RightForeArm  -6.95814 -1.56433 -4.55054
RightHand  3.26339 -15.2401 -21.7353
LeftUpLeg  -59.8791 -5.41258 9.43006
LeftLeg  121.438 -5.80226 -13.2797
LeftFoot  -16.3762 -0.0629143 -0.555496
LeftToes  4.94765e-010 2.02697e-011 4.00889e-011
118
root  42.6315 19.7608 4.4129 170.98 84.0768 123.494
RightUpLeg  -38.0415 12.1851 7.82249
RightLeg  97.7765 10.6961 2.79264
RightFoot  -17.1698 -0.199187 -5.79679
RightToes  1.74622e-010 -3.18055e-015 8.94531e-016
Spine  52.8976 0.182994 1.81468
Spine1  -16.583 1.82705 -16.2373
HEad  -63.4259 -10.6099 17.77
LeftShoulder1  0 -2.69403e-036 -1.28585e-037
LeftArm  7.98928 -31.4916 -98.7482
LeftForeArm  31.8285 -2.21428 -3.97933
LeftHand  -4.38752 -0.921238 50.2169
RightShoulder  -2.48481e-017 0 -8.08114e-019
RightArm  -9.85001 51.1971 58.4117
RightForeArm  -8.47004 -3.44055 -4.15083
RightHand  4.09601 -16.7653 -25.3996
LeftUpLeg  -65.096 -5.4751 8.66769
LeftLeg  124.393 -4.30582 -14.1995
LeftFoot  -17.9288 -0.123167 -1.77243
LeftToes  4.94765e-010 2.02697e-011 4.00889e-011
119
root  43.5531 19.7792 4.75092 144.759 84.262 98.2672
RightUpLeg  -33.8931 12.6393 7.59923
RightLeg  93.9473 11.2593 -1.55152
RightFoot  -16.8553 -0.203689 -6.42033
RightToes  1.74622e-010 -3.18055e-015 8.94531e-016
Spine  53.3728 0.774782 -1.18417
Spine1  -15.3667 1.2236 -17.1621
HEad  -63.0312 -9.62197 18.7175
LeftShoulder1  0 -2.69403e-036 -1.28585e-037
LeftArm  9.25046 -30.454 -95.0971
LeftForeArm  30.1577 -2.63239 -4.38898
LeftHand  -4.37036 -0.90524 50.1501
RightShoulder  -2.48481e-017 0 -8.08114e-019
RightArm  -9.87287 49.7005 62.9668
RightForeArm  -7.76464 -2.85533 -5.15874
RightHand  4.91212 -17.8102 -29.4467
LeftUpLeg  -68.6942 -4.9673 7.83615
LeftLeg  126.085 -3.37925 -14.6854
LeftFoot  -18.9623 -0.204064 -3.04416
LeftToes  4.94765e-010 2.02697e-011 4.00889e-011
120
root  44.4703 19.7195 5.03235 124.935 84.1974 80.1482
RightUpLeg  -28.7853 12.9626 8.22594
RightLeg  89.913 11.2597 -5.42542
RightFoot  -16.775 -0.205603 -6.62055
RightToes  1.74622e-010 -3.18055e-015 8.94531e-016
Spine  53.3183 0.974544 -3.27815
Spine1  -13.3006 0.729141 -17.9386
HEad  -61.8948 -8.04886 19.3574
LeftShoulder1  0 -2.69403e-036 -1.28585e-037
LeftArm  13.6246 -29.4749 -90.6975
LeftForeArm  26.2902 -4.38219 -4.91233
LeftHand  -4.2739 -0.858927 49.496
RightShoulder  -2.48481e-017 0 -8.08114e-019
RightArm  -9.81432 48.161 68.018
RightForeArm  -6.57106 -1.04952 -6.59852
RightHand  5.26192 -18.0586 -31.6013
LeftUpLeg  -70.6679 -4.0828 7.53439
LeftLeg  127.149 -2.94188 -14.7584
LeftFoot  -19.5944 -0.335022 -5.11508
LeftToes  4.94765e-010 2.02697e-011 4.00889e-011
121
root  45.3628 19.522 5.22552 111.073 84.4372 68.145
RightUpLeg  -23.4212 13.2341 9.48399
RightLeg  86.0132 10.7976 -8.30516
RightFoot  -16.5335 -0.198443 -6.84669
RightToes  1.74622e-010 -3.18055e-015 8.94531e-016
Spine  52.6797 0.597102 -3.7814
Spine1  -11.1555 0.489542 -19.2816
HEad  -60.439 -6.87569 19.53
LeftShoulder1  0 -2.69403e-036 -1.28585e-037
LeftArm  21.8227 -27.598 -86.5416
LeftForeArm  19.2983 -7.90372 -4.77695
LeftHand  -4.08919 -0.771537 48.2014
RightShoulder  -2.48481e-017 0 -8.08114e-019
RightArm  -8.77218 47.1184 73.983
RightForeArm  -5.15165 -1.05028 -7.03416
RightHand  5.52008 -18.2708 -33.0134
LeftUpLeg  -71.1414 -3.27443 7.57946
LeftLeg  127.657 -3.0405 -14.4073
LeftFoot  -17.4273 -0.206967 -4.4154
LeftToes  4.94765e-010 2.02697e-011 4.00889e-011
122
root  46.243 19.2118 5.3358 100.538 84.6395 58.7038
RightUpLeg  -18.9816 13.5737 10.4651
RightLeg  82.6239 10.1435 -9.98591
RightFoot  -16.1171 -0.188578 -7.41668
RightToes  1.74622e-010 -3.18055e-015 8.94531e-016
Spine  51.5117 0.170209 -3.43666
Spine1  -9.92715 0.503409 -20.525
HEad  -59.0569 -6.42786 19.4727
LeftShoulder1  0 -2.69403e-036 -1.28585e-037
LeftArm  28.345 -24.0174 -83.4372
LeftForeArm  13.7151 -12.411 -2.59233
LeftHand  -3.79269 -0.641078 45.9644
RightShoulder  -2.48481e-017 0 -8.08114e-019
RightArm  -7.81124 45.4525 79.4809
RightForeArm  -2.84724 -2.00193 -6.79848
RightHand  6.01039 -18.8245 -35.0016
LeftUpLeg  -70.5494 -2.68679 7.344
LeftLeg  127.742 -3.71478 -13.5388
LeftFoot  -11.2534 -0.0374624 0.216842
LeftToes  4.94765e-010 2.02697e-011 4.00889e-011
